<?xml version="1.0" encoding="iso-8859-1"?>
<!-- Generator: Adobe Illustrator 16.0.0, SVG Export Plug-In . SVG Version: 6.00 Build 0)  -->
<!DOCTYPE svg PUBLIC "-//W3C//DTD SVG 1.1//EN" "http://www.w3.org/Graphics/SVG/1.1/DTD/svg11.dtd">
<svg version="1.1" id="Capa_1" xmlns="http://www.w3.org/2000/svg" xmlns:xlink="http://www.w3.org/1999/xlink" x="0px" y="0px"
	 width="569.188px" height="569.188px" viewBox="0 0 569.188 569.188" style="enable-background:new 0 0 569.188 569.188;"
	 xml:space="preserve">
<g>
	<g>
		<g>
			<path d="M456.077,143.592L267.09,69.706c-6.455-2.521-13.625-2.373-19.965,0.394c-6.342,2.785-11.33,7.96-13.852,14.415
				L111.229,396.808c-2.521,6.455-2.371,13.623,0.394,19.967c2.785,6.342,7.96,11.33,14.417,13.852l188.945,73.829
				c13.438,5.249,28.569-1.375,33.818-14.812l122.084-312.237c2.521-6.453,2.37-13.644-0.396-19.986
				C467.708,151.082,462.531,146.111,456.077,143.592z M260.898,434.897c-5.173,13.248-20.116,19.741-33.33,14.584
				c-13.286-5.175-19.816-20.062-14.641-33.311c5.214-13.269,20.098-19.817,33.348-14.623
				C259.505,406.706,266.077,421.647,260.898,434.897z M429.318,184.671l-89.919,230.107c-0.642,1.616-1.903,2.936-3.503,3.631
				c-1.601,0.695-3.426,0.733-5.046,0.096l-158.195-61.822c-3.386-1.338-5.062-5.155-3.725-8.545l89.919-230.104
				c0.639-1.62,1.901-2.938,3.501-3.633c1.599-0.696,3.425-0.732,5.043-0.094l158.178,61.822
				C428.958,177.464,430.631,181.286,429.318,184.671z"/>
			<path d="M111.397,449.652c-4.292-9.731-15.582-14.154-25.386-9.917c-9.747,4.27-14.19,15.639-9.917,25.384l8.731,19.895
				C47.188,462.9,29.87,416.247,46.264,374.317c3.878-9.916-1.014-21.099-10.933-24.975c-9.957-3.874-21.098,1.034-24.974,10.936
				c-24.409,62.426,3.333,132.525,61.992,162.146l-22.489,9.841c-9.745,4.274-14.188,15.64-9.914,25.389
				c3.162,7.228,10.236,11.534,17.67,11.534c2.579,0,5.194-0.507,7.715-1.617l52.544-23.017c7.83-3.462,13.872-9.768,17.05-17.842
				c3.089-7.997,2.899-16.71-0.526-24.614L111.397,449.652z"/>
			<path d="M496.895,46.746l22.471-9.843c9.749-4.272,14.189-15.639,9.918-25.388c-4.271-9.729-15.565-14.131-25.388-9.917
				l-52.431,22.98c-7.885,3.462-13.964,9.786-17.106,17.801c-3.123,8.038-2.954,16.805,0.508,24.692l22.96,52.41
				c3.162,7.228,10.239,11.536,17.673,11.536c2.576,0,5.191-0.508,7.713-1.62c9.749-4.271,14.192-15.639,9.919-25.384l-8.713-19.875
				c37.602,22.095,54.896,68.769,38.523,110.733c-3.876,9.917,1.036,21.078,10.952,24.954c2.297,0.904,4.668,1.318,7.002,1.318
				c7.695,0,14.979-4.647,17.953-12.271C583.221,146.412,555.498,76.33,496.895,46.746z"/>
		</g>
	</g>
</g>
<g>
</g>
<g>
</g>
<g>
</g>
<g>
</g>
<g>
</g>
<g>
</g>
<g>
</g>
<g>
</g>
<g>
</g>
<g>
</g>
<g>
</g>
<g>
</g>
<g>
</g>
<g>
</g>
<g>
</g>
</svg>
